<svg xmlns="http://www.w3.org/2000/svg" xmlns:xlink="http://www.w3.org/1999/xlink" version="1.1" width="1000" height="1000" viewBox="0 0 1000 1000" xml:space="preserve">
<desc>Created with Fabric.js 3.5.0</desc>
<defs>
</defs>
<rect x="0" y="0" width="100%" height="100%" fill="#ffffff"/>
<g transform="matrix(0.4968 -0.4971 0.4971 0.4968 499.9889 489.5675)" id="691602">
<g style="" vector-effect="non-scaling-stroke">
		<g transform="matrix(1 0 0 1 -161.914 158.8575)" id="Layer_1">
<path style="stroke: none; stroke-width: 1; stroke-dasharray: none; stroke-linecap: butt; stroke-dashoffset: 0; stroke-linejoin: miter; stroke-miterlimit: 4; is-custom-font: none; font-file-url: none; fill: rgb(255,206,84); fill-rule: nonzero; opacity: 1;" transform=" translate(-94.094, -414.8655)" d="M 17.25 493.132 c 3.625 -10.188 8.344 -23.141 13.625 -36.563 c 19.875 -50.642 30.407 -65.782 34.938 -70.298 c 6.781 -6.797 15.188 -11.375 24.313 -13.266 l 3.156 -0.656 l 35.344 -35.75 l 42.312 48.875 l -32.906 31.516 l -0.688 3.235 c -1.875 9.125 -6.469 17.531 -13.25 24.344 c -4.531 4.5 -19.656 15.062 -70.282 34.923 C 40.376 484.757 27.406 489.507 17.25 493.132 z" stroke-linecap="round"/>
</g>
		<g transform="matrix(1 0 0 1 -163.211 159.6465)" id="Layer_1">
<path style="stroke: none; stroke-width: 1; stroke-dasharray: none; stroke-linecap: butt; stroke-dashoffset: 0; stroke-linejoin: miter; stroke-miterlimit: 4; is-custom-font: none; font-file-url: none; fill: rgb(246,187,66); fill-rule: nonzero; opacity: 1;" transform=" translate(-92.797, -415.6545)" d="M 129.158 320.943 L 87.97 362.584 c -10.719 2.219 -21.126 7.609 -29.688 16.172 C 36.407 400.63 0 510.366 0 510.366 s 109.72 -36.391 131.626 -58.282 c 8.531 -8.547 13.938 -18.969 16.156 -29.703 l 37.812 -36.22 L 129.158 320.943 z M 133.064 407.005 l -4.781 4.594 l -1.344 6.484 c -1.469 7.079 -5.062 13.642 -10.375 18.954 c -1.75 1.75 -13.219 11.578 -66.563 32.517 c -5.094 1.984 -10.094 3.906 -14.906 5.703 c 1.812 -4.812 3.719 -9.812 5.719 -14.876 c 20.938 -53.36 30.75 -64.829 32.531 -66.579 c 5.313 -5.328 11.876 -8.906 18.938 -10.359 l 6.312 -1.312 l 4.531 -4.578 l 24.969 -25.281 l 28.156 32.516 L 133.064 407.005 z" stroke-linecap="round"/>
</g>
		<g transform="matrix(1 0 0 1 24.3075 152.2572)" id="Layer_1">
<path style="stroke: none; stroke-width: 1; stroke-dasharray: none; stroke-linecap: butt; stroke-dashoffset: 0; stroke-linejoin: miter; stroke-miterlimit: 4; is-custom-font: none; font-file-url: none; fill: rgb(218,68,83); fill-rule: nonzero; opacity: 1;" transform=" translate(-280.3155, -408.2652)" d="M 199.909 423.397 c 5.969 -2.797 11.938 -5.767 17.875 -8.876 l 121.501 -86.781 c 4.969 -4.641 9.875 -9.391 14.719 -14.203 c 2.781 -2.812 5.563 -5.625 8.282 -8.469 c -0.469 55.359 -25.845 115.923 -74.032 164.127 c -16.062 16.047 -33.469 29.562 -51.625 40.484 c -0.125 0.078 -0.845 0.5 -0.845 0.5 c -4.031 2.188 -9.188 1.578 -12.594 -1.828 c -1.125 -1.141 -1.938 -2.469 -2.438 -3.875 c 0 0 -0.375 -1.109 -0.469 -1.594 l -21.938 -78.767 C 198.878 423.881 199.378 423.631 199.909 423.397 z" stroke-linecap="round"/>
</g>
		<g transform="matrix(1 0 0 1 -151.6819 -23.7615)" id="Layer_1">
<path style="stroke: none; stroke-width: 1; stroke-dasharray: none; stroke-linecap: butt; stroke-dashoffset: 0; stroke-linejoin: miter; stroke-miterlimit: 4; is-custom-font: none; font-file-url: none; fill: rgb(218,68,83); fill-rule: nonzero; opacity: 1;" transform=" translate(-104.3261, -232.2465)" d="M 207.534 150.269 c -2.844 2.734 -5.656 5.516 -8.469 8.312 c -4.813 4.828 -9.563 9.734 -14.188 14.703 c -21.281 3 -86.812 121.517 -86.812 121.517 c -3.094 5.938 -6.062 11.892 -8.875 17.876 c -0.25 0.516 -0.469 1.031 -0.719 1.547 L 9.688 292.285 c -0.469 -0.094 -1.594 -0.469 -1.594 -0.469 c -1.406 -0.5 -2.719 -1.312 -3.875 -2.453 c -3.406 -3.406 -4 -8.547 -1.812 -12.594 c 0 0 0.406 -0.703 0.5 -0.828 c 10.906 -18.157 24.406 -35.563 40.469 -51.625 C 91.595 176.097 152.158 150.722 207.534 150.269 z" stroke-linecap="round"/>
</g>
		<g transform="matrix(1 0 0 1 34.0829 -33.5302)" id="Layer_1">
<path style="stroke: none; stroke-width: 1; stroke-dasharray: none; stroke-linecap: butt; stroke-dashoffset: 0; stroke-linejoin: miter; stroke-miterlimit: 4; is-custom-font: none; font-file-url: none; fill: rgb(230,233,237); fill-rule: nonzero; opacity: 1;" transform=" translate(-290.0909, -222.4778)" d="M 197.003 151.05 c -60.408 60.422 -103.97 129.438 -128.252 196.299 c -1.281 3.75 -0.469 8.031 2.531 11.016 l 82.907 82.938 c 3 2.969 7.281 3.797 11.031 2.516 c 66.876 -24.282 135.877 -67.829 196.285 -128.251 c 93.876 -93.845 146.563 -207.081 150.501 -303.645 c 0.125 -2.875 -0.906 -6.047 -3.094 -8.25 c -2.219 -2.203 -5.375 -3.234 -8.281 -3.109 C 404.069 4.501 290.848 57.205 197.003 151.05 z" stroke-linecap="round"/>
</g>
		<g transform="matrix(1 0 0 1 61.5941 -61.052)" id="Layer_1">
<path style="stroke: none; stroke-width: 1; stroke-dasharray: none; stroke-linecap: butt; stroke-dashoffset: 0; stroke-linejoin: miter; stroke-miterlimit: 4; is-custom-font: none; font-file-url: none; fill: rgb(67,74,84); fill-rule: nonzero; opacity: 1;" transform=" translate(-317.6021, -194.956)" d="M 317.598 237.535 c -11.375 0 -22.062 -4.438 -30.094 -12.469 c -8.031 -8.047 -12.469 -18.735 -12.469 -30.11 s 4.438 -22.063 12.469 -30.11 c 8.031 -8.031 18.75 -12.469 30.094 -12.469 c 11.375 0 22.062 4.438 30.125 12.469 c 16.595 16.61 16.595 43.625 0 60.22 c -8.062 8.031 -18.75 12.469 -30.094 12.469 C 317.598 237.535 317.598 237.535 317.598 237.535 z" stroke-linecap="round"/>
</g>
		<g transform="matrix(1 0 0 1 -28.7202 29.262)" id="Layer_1">
<path style="stroke: none; stroke-width: 1; stroke-dasharray: none; stroke-linecap: butt; stroke-dashoffset: 0; stroke-linejoin: miter; stroke-miterlimit: 4; is-custom-font: none; font-file-url: none; fill: rgb(67,74,84); fill-rule: nonzero; opacity: 1;" transform=" translate(-227.2878, -285.27)" d="M 227.284 327.849 c -11.375 0 -22.062 -4.422 -30.094 -12.469 c -8.032 -8.031 -12.47 -18.735 -12.47 -30.095 c 0 -11.375 4.438 -22.078 12.47 -30.125 c 8.031 -8.031 18.719 -12.469 30.094 -12.469 c 11.376 0 22.063 4.438 30.126 12.469 c 16.594 16.61 16.594 43.626 0 60.22 C 249.347 323.427 238.66 327.849 227.284 327.849 L 227.284 327.849 z" stroke-linecap="round"/>
</g>
		<g transform="matrix(1 0 0 1 61.5901 -61.052)" id="Layer_1">
<path style="stroke: none; stroke-width: 1; stroke-dasharray: none; stroke-linecap: butt; stroke-dashoffset: 0; stroke-linejoin: miter; stroke-miterlimit: 4; is-custom-font: none; font-file-url: none; fill: rgb(204,209,217); fill-rule: nonzero; opacity: 1;" transform=" translate(-317.5981, -194.956)" d="M 355.254 157.331 c -10.062 -10.047 -23.438 -15.594 -37.656 -15.594 c -14.188 0 -27.562 5.547 -37.625 15.594 c -10.031 10.047 -15.594 23.422 -15.594 37.625 c 0 14.219 5.562 27.579 15.594 37.641 c 10.062 10.046 23.438 15.578 37.625 15.578 c 14.219 0 27.594 -5.531 37.656 -15.578 C 376.005 211.847 376.005 178.082 355.254 157.331 z M 340.192 217.535 c -6.25 6.234 -14.406 9.359 -22.594 9.359 c -8.156 0 -16.344 -3.125 -22.562 -9.359 c -12.469 -12.469 -12.469 -32.688 0 -45.157 c 6.219 -6.234 14.406 -9.344 22.562 -9.344 c 8.188 0 16.344 3.109 22.594 9.344 C 352.66 184.847 352.66 205.066 340.192 217.535 z" stroke-linecap="round"/>
</g>
		<g transform="matrix(1 0 0 1 -28.7237 29.2785)" id="Layer_1">
<path style="stroke: none; stroke-width: 1; stroke-dasharray: none; stroke-linecap: butt; stroke-dashoffset: 0; stroke-linejoin: miter; stroke-miterlimit: 4; is-custom-font: none; font-file-url: none; fill: rgb(204,209,217); fill-rule: nonzero; opacity: 1;" transform=" translate(-227.2842, -285.2865)" d="M 227.284 232.067 c -14.219 0 -27.562 5.531 -37.626 15.578 c -10.062 10.046 -15.594 23.422 -15.594 37.641 c 0 14.204 5.531 27.563 15.594 37.626 c 10.063 10.047 23.407 15.594 37.626 15.594 c 14.22 0 27.595 -5.547 37.658 -15.594 c 20.75 -20.75 20.75 -54.517 0 -75.267 C 254.879 237.598 241.504 232.067 227.284 232.067 z M 249.879 307.849 c -6.25 6.25 -14.407 9.359 -22.595 9.359 c -8.156 0 -16.344 -3.109 -22.562 -9.359 c -12.47 -12.47 -12.47 -32.688 0 -45.157 c 6.219 -6.235 14.406 -9.344 22.562 -9.344 c 8.188 0 16.345 3.109 22.595 9.344 C 262.348 275.16 262.348 295.379 249.879 307.849 z" stroke-linecap="round"/>
</g>
		<g transform="matrix(1 0 0 1 183.3776 -182.823)" id="Layer_1">
<path style="stroke: none; stroke-width: 1; stroke-dasharray: none; stroke-linecap: butt; stroke-dashoffset: 0; stroke-linejoin: miter; stroke-miterlimit: 4; is-custom-font: none; font-file-url: none; fill: rgb(218,68,83); fill-rule: nonzero; opacity: 1;" transform=" translate(-439.3856, -73.1849)" d="M 479.225 145.816 L 366.755 33.361 c 45.813 -19.922 91.47 -31.063 133.876 -32.797 c 2.906 -0.125 6.062 0.906 8.281 3.109 c 2.188 2.203 3.219 5.375 3.094 8.25 C 510.287 54.361 499.131 100.003 479.225 145.816 z" stroke-linecap="round"/>
</g>
</g>
</g>
</svg>